<?xml version="1.0" encoding="UTF-8"?>
<svg width="21px" height="17px" viewBox="0 0 21 17" version="1.1" xmlns="http://www.w3.org/2000/svg" xmlns:xlink="http://www.w3.org/1999/xlink">
    <!-- Generator: Sketch 51.3 (57544) - http://www.bohemiancoding.com/sketch -->
    <title>05_sound_icon</title>
    <desc>Created with Sketch.</desc>
    <defs></defs>
    <g id="Page-1" stroke="none" stroke-width="1" fill="none" fill-rule="evenodd">
        <g id="05_sound_icon" fill="#F8424E" fill-rule="nonzero">
            <path d="M9,0.9 C9,0.9 6,3.7 3.6,5.9 L1.5,5.9 C0.8,5.9 0.2,6.5 0.2,7.2 L0.2,9.8 C0.2,10.5 0.8,11.1 1.5,11.1 L3.9,11.1 L9,15.5 C9.5,16 10,15.8 10,15 L10,1.3 C10,0.6 9.6,0.4 9,0.9 Z" id="Shape"></path>
            <g id="Group" transform="translate(12.000000, 0.000000)">
                <path d="M3.8,16.5 L3.1,15.4 C5.4,13.9 6.8,11.3 6.8,8.5 C6.8,5.7 5.4,3.2 3.1,1.6 L3.8,0.5 C6.5,2.3 8.1,5.2 8.1,8.5 C8.1,11.8 6.5,14.8 3.8,16.5 Z" id="Shape"></path>
                <path d="M0.8,14 L0.3,12.8 C2,12.1 3.1,10.4 3.1,8.6 C3.1,6.8 2,5.1 0.3,4.4 L0.8,3.2 C3,4.1 4.4,6.3 4.4,8.6 C4.4,10.9 3,13.1 0.8,14 Z" id="Shape"></path>
            </g>
        </g>
    </g>
</svg>